# Blender v3.5.1 OBJ File: 'assets.blend'
# www.blender.org
mtllib Grass_01.mtl
o Circle.003_Circle.004
v -8.770852 0.166027 -10.703999
v -8.311748 0.166027 -9.908807
v -7.393539 0.166027 -9.908807
v -6.934435 0.166027 -10.703999
v -7.393539 0.166027 -11.499190
v -8.311748 0.166027 -11.499190
v -8.311748 0.263752 -9.908807
v -8.770852 0.263752 -10.703999
v -7.393539 0.263752 -9.908807
v -6.934435 0.263752 -10.703999
v -7.393539 0.263752 -11.499190
v -8.311748 0.263752 -11.499190
vt 0.468228 0.399619
vt 0.468228 0.135659
vt 0.696825 0.003678
vt 0.925421 0.135659
vt 0.925421 0.399619
vt 0.696825 0.531600
vt 0.257914 0.309527
vt 0.564289 0.132938
vt 0.870408 0.309973
vt 0.870151 0.663596
vt 0.563775 0.840185
vt 0.257657 0.663151
vt 0.996322 0.135659
vt 0.996322 0.399619
vt 0.968228 0.399619
vt 0.968228 0.135659
vt 1.180730 0.399619
vt 1.180730 0.531600
vt 1.152637 0.531600
vt 1.152637 0.399619
vt 0.960872 0.003678
vt 0.960872 0.135659
vt 0.932778 0.135659
vt 0.932778 0.003678
vt 0.996322 0.531600
vt 0.968228 0.531600
vt 0.996322 0.003678
vt 0.968228 0.003678
vt 0.960872 0.399619
vt 0.932778 0.399619
vn 0.0000 -1.0000 0.0000
vn 0.0000 1.0000 0.0000
vn 0.0000 0.0000 -1.0000
vn 0.8660 0.0000 0.5000
vn -0.8660 0.0000 0.5000
vn -0.8660 0.0000 -0.5000
vn 0.8660 0.0000 -0.5000
vn 0.0000 0.0000 1.0000
usemtl Tress_Trunk
s off
f 2/1/1 1/2/1 6/3/1 5/4/1 4/5/1 3/6/1
f 7/7/2 9/8/2 10/9/2 11/10/2 12/11/2 8/12/2
f 5/13/3 6/14/3 12/15/3 11/16/3
f 3/17/4 4/18/4 10/19/4 9/20/4
f 1/21/5 2/22/5 7/23/5 8/24/5
f 6/14/6 1/25/6 8/26/6 12/15/6
f 4/27/7 5/13/7 11/16/7 10/28/7
f 2/22/8 3/29/8 9/30/8 7/23/8
